<svg width="824" height="323" viewBox="0 0 824 323" fill="none" xmlns="http://www.w3.org/2000/svg">
<g clip-path="url(#clip0_508_1444)">
<path d="M365.088 184.55C365.088 184.55 341.966 211.774 355.258 228.031C368.549 244.288 387.21 213.596 387.21 213.596L400.183 196.489L385.867 161.638C378.503 168.87 371.565 176.52 365.088 184.55Z" fill="#EFD565"/>
<path d="M532.15 296.095L587.576 302.933C591.811 303.456 594.822 307.295 594.303 311.508C593.783 315.721 589.928 318.713 585.694 318.191L530.267 311.353C526.033 310.83 523.021 306.991 523.541 302.778C524.061 298.565 527.915 295.573 532.15 296.095Z" fill="#FFBB4D"/>
<path d="M374.634 276.664L428.486 283.308C432.72 283.831 435.732 287.67 435.212 291.883C434.692 296.096 430.838 299.088 426.603 298.566L372.752 291.922C368.517 291.399 365.506 287.56 366.026 283.347C366.545 279.134 370.4 276.142 374.634 276.664Z" fill="#FFBB4D"/>
<path d="M563.823 61.6159C533.191 48.6489 499.535 44.4965 466.67 49.6296L466.373 49.593C451.963 51.8099 438.398 57.7798 427.048 66.8994C415.698 76.019 406.966 87.9653 401.734 101.531C391.787 127.373 374.441 212.697 371.294 238.205C371.294 238.205 361.452 290.588 484.133 305.724C606.815 320.86 609.524 267.597 609.524 267.597C609.524 267.597 614.068 230.772 615.087 214.686C617.125 185.802 616.666 156.795 613.715 127.985C611.991 113.53 606.464 99.7826 597.696 88.1369C588.928 76.4912 577.229 67.3609 563.786 61.6715L563.823 61.6159Z" fill="#F2F2F2"/>
<path d="M563.823 61.6159C533.191 48.6489 499.535 44.4965 466.67 49.6296L466.373 49.593C451.963 51.8099 438.398 57.7798 427.048 66.8994C415.698 76.019 406.966 87.9653 401.734 101.531C391.787 127.373 374.441 212.697 371.294 238.205C371.294 238.205 361.452 290.588 484.133 305.724C606.815 320.86 609.524 267.597 609.524 267.597C609.524 267.597 614.068 230.772 615.087 214.686C617.125 185.802 616.666 156.795 613.715 127.985C611.991 113.53 606.464 99.7826 597.696 88.1369C588.928 76.4912 577.229 67.3609 563.786 61.6715L563.823 61.6159Z" fill="#FFE36C"/>
<path d="M432.84 138.488C425.553 137.589 420.371 130.971 421.268 123.707C422.164 116.442 428.798 111.282 436.086 112.181C443.374 113.08 448.555 119.698 447.658 126.963C446.762 134.227 440.128 139.388 432.84 138.488Z" fill="black"/>
<path d="M538.792 151.563C531.504 150.664 526.323 144.046 527.219 136.781C528.116 129.517 534.75 124.356 542.038 125.255C549.325 126.154 554.506 132.773 553.61 140.037C552.714 147.302 546.079 152.462 538.792 151.563Z" fill="black"/>
<path d="M630.777 223.693C630.777 223.693 646.558 255.717 629.681 268.282C612.803 280.848 602.202 246.455 602.202 246.455L593.839 226.685L616.256 196.366C621.622 205.188 626.47 214.312 630.777 223.693Z" fill="#FFE36C"/>
<path d="M456.029 278.407C456.42 278.457 456.817 278.43 457.197 278.327C457.578 278.225 457.934 278.048 458.246 277.808L473.115 266.108C473.672 265.601 474.017 264.903 474.08 264.154C474.143 263.405 473.92 262.659 473.456 262.066C472.992 261.474 472.32 261.077 471.576 260.956C470.831 260.835 470.069 260.998 469.44 261.413L454.559 272.962C454.247 273.203 453.985 273.503 453.789 273.845C453.594 274.188 453.469 274.566 453.42 274.957C453.372 275.348 453.402 275.745 453.508 276.124C453.615 276.504 453.795 276.859 454.04 277.168C454.271 277.498 454.566 277.777 454.908 277.99C455.25 278.202 455.631 278.344 456.029 278.407Z" fill="#FFBB4D"/>
<path d="M469.251 280.047C469.841 280.123 470.44 280.022 470.972 279.758C471.505 279.493 471.945 279.077 472.239 278.561C472.532 278.045 472.665 277.454 472.62 276.863C472.575 276.272 472.355 275.707 471.987 275.241L460.388 260.426C460.146 260.114 459.844 259.853 459.501 259.658C459.157 259.463 458.778 259.337 458.386 259.289C457.994 259.241 457.596 259.27 457.215 259.376C456.834 259.482 456.478 259.662 456.168 259.905C455.546 260.392 455.142 261.104 455.046 261.887C454.949 262.67 455.168 263.459 455.653 264.082L467.277 278.931C467.763 279.547 468.472 279.947 469.251 280.047Z" fill="#FFBB4D"/>
<path d="M551.621 198.013C540.329 196.62 532.3 186.364 533.689 175.107C535.078 163.85 545.358 155.854 556.651 157.247C567.943 158.641 575.972 168.896 574.583 180.153C573.194 191.41 562.914 199.406 551.621 198.013Z" fill="#FFA052"/>
<path d="M409.997 180.538C398.704 179.145 390.676 168.89 392.065 157.633C393.454 146.376 403.734 138.38 415.026 139.773C426.319 141.166 434.347 151.421 432.959 162.678C431.57 173.935 421.289 181.931 409.997 180.538Z" fill="#FFA052"/>
<path d="M463.075 166.061L495.767 170.094C500.246 170.631 504.755 169.378 508.308 166.609C511.861 163.841 514.168 159.782 514.727 155.319C515.867 146.076 492.678 136.929 483.375 135.781C474.103 134.637 449.385 137.874 448.245 147.117C447.701 151.587 448.957 156.09 451.737 159.641C454.517 163.191 458.594 165.5 463.075 166.061Z" fill="#FFBB4D"/>
<path d="M519.834 49.3124C519.834 49.3124 520.855 30.7607 510.901 17.2912C510.663 16.9744 510.341 16.7312 509.97 16.59C509.6 16.4487 509.196 16.4151 508.808 16.4931C508.419 16.5711 508.06 16.7576 507.774 17.0307C507.487 17.3039 507.284 17.6525 507.188 18.0362C504.91 26.5146 501.216 34.5489 496.261 41.8023C494.795 43.5629 492.969 44.9911 490.905 45.9916C488.841 46.9921 486.586 47.5418 484.291 47.6042" fill="#FFE36C"/>
<path d="M498.757 47.5188C508.586 42.2331 517.157 34.8996 523.888 26.0164C524.12 25.6899 524.44 25.4367 524.812 25.2867C525.184 25.1367 525.591 25.0963 525.986 25.1703C526.38 25.2443 526.745 25.4296 527.037 25.7041C527.329 25.9787 527.536 26.3309 527.633 26.719C528.443 31.7101 528.598 36.7845 528.094 41.8144C527.939 44.211 528.626 46.5874 530.038 48.5346C531.449 50.4818 533.497 51.8782 535.829 52.4836" fill="#FFE36C"/>
<path d="M197.996 304.896C197.996 304.896 167.519 288.042 174.133 268.641C180.746 249.24 208.324 270.793 208.324 270.793L226.024 281.934L224.827 318.64C215.621 314.578 206.663 309.99 197.996 304.896Z" fill="#EFEFEF"/>
<path d="M424.923 312.036L386.745 322.702L388.544 329.14C389.24 331.632 390.424 333.961 392.029 335.995C393.634 338.029 395.627 339.727 397.896 340.993C400.165 342.259 402.664 343.068 405.252 343.373C407.84 343.679 410.464 343.475 412.977 342.773C418.03 341.337 422.313 337.975 424.889 333.421C427.465 328.867 428.124 323.493 426.722 318.474L424.923 312.036Z" fill="black"/>
<path d="M232.876 166.285C232.876 166.285 172.003 141.227 160.611 167.524C147.507 197.709 219.949 207.012 219.949 207.012L232.876 166.285Z" fill="#FFCACA"/>
<path d="M176.916 168.195C172.598 169.401 171.694 171.283 171.39 172.152C170.979 172.8 170.755 173.548 170.743 174.312C170.731 175.077 170.932 175.829 171.323 176.486C174.075 181.33 188.545 189.569 211.849 194.042L218.287 173.535C204.748 169.17 186.905 165.404 176.831 168.218L176.916 168.195ZM173.703 157.022C195.346 150.976 232.812 166.399 232.812 166.399L219.856 207.134C219.856 207.134 147.301 197.862 160.518 167.646C161.732 164.984 163.553 162.639 165.837 160.796C168.121 158.952 170.805 157.663 173.675 157.03L173.703 157.022Z" fill="black"/>
<path d="M211.957 159.251C204.866 153.461 198.754 146.582 193.852 138.872C193.206 137.886 192.878 136.727 192.911 135.549C192.943 134.371 193.336 133.229 194.035 132.275C194.735 131.321 195.709 130.598 196.829 130.204C197.949 129.81 199.161 129.763 200.306 130.068C210.5 132.595 220.296 136.487 229.425 141.638C245.83 151.689 211.957 159.251 211.957 159.251Z" fill="#FFC145"/>
<path d="M282.952 371.804C291.635 371.595 300.298 370.809 308.88 369.449C322.021 367.425 335.023 364.578 347.809 360.927C358.951 357.867 369.926 354.227 380.688 350.022C460.792 318.591 446.856 279.485 446.856 279.485C446.856 279.485 437.136 244.692 432.018 229.858C423.031 203.136 411.728 177.247 398.234 152.481C391.242 140.151 381.088 129.885 368.8 122.722C356.511 115.558 342.523 111.75 328.249 111.682C307.482 111.569 286.847 115.146 267.319 122.247C256.354 126.223 245.813 131.281 235.855 137.343L235.573 137.422C223.39 144.833 213.38 155.298 206.553 167.76C199.726 180.221 196.324 194.238 196.69 208.394C197.304 219.033 198.497 229.629 200.265 240.135C205.569 275.89 215.659 325.183 220.586 342.818C220.562 342.734 226.949 372.784 282.952 371.804Z" fill="white"/>
<path d="M308.889 369.466C322.03 367.442 335.032 364.595 347.818 360.944C358.96 357.884 369.935 354.244 380.697 350.039C460.801 318.608 446.865 279.502 446.865 279.502C446.865 279.502 437.145 244.709 432.027 229.875C432.027 229.875 368.163 239.84 368.108 288.86C368.159 293.077 367.635 297.283 366.552 301.365C357.464 334.713 310.93 323.09 308.89 368.38C308.86 368.741 308.86 369.105 308.889 369.466Z" fill="black"/>
<path d="M200.275 240.124C222.659 220.835 210.141 184.41 241.97 175.518C279.978 164.9 267.445 122.323 267.445 122.323C256.479 126.3 245.938 131.357 235.981 137.42L235.698 137.499C223.516 144.91 213.505 155.375 206.678 167.837C199.851 180.298 196.449 194.315 196.816 208.47C197.394 219.078 198.548 229.645 200.275 240.124Z" fill="black"/>
<path d="M268.031 334.801L274.411 357.642C275.915 363.044 278.869 367.934 282.957 371.79C304.941 370.9 326.734 367.245 347.815 360.913C358.957 357.853 369.932 354.213 380.694 350.008L368.597 306.707C368.089 304.874 367.409 303.094 366.564 301.39C363.317 294.812 357.856 289.574 351.122 286.58C344.388 283.587 336.804 283.024 329.677 284.99L290.173 296.026C282.076 298.28 275.197 303.629 271.045 310.899C266.894 318.168 265.81 326.765 268.031 334.801Z" fill="#FFCACA"/>
<path d="M238.725 230.049C231.806 231.982 224.643 227.985 222.725 221.121C220.808 214.258 224.862 207.126 231.782 205.193C238.701 203.26 245.864 207.258 247.782 214.121C249.699 220.985 245.645 228.116 238.725 230.049Z" fill="black"/>
<path d="M339.325 201.944C332.406 203.877 325.242 199.88 323.325 193.016C321.407 186.153 325.462 179.021 332.381 177.088C339.3 175.155 346.464 179.153 348.381 186.016C350.299 192.88 346.244 200.011 339.325 201.944Z" fill="black"/>
<path d="M252.729 247.829C248.53 232.798 256.728 211.618 285.622 203.546C314.517 195.474 331.997 209.481 336.196 224.512C340.395 239.543 329.69 249.896 300.824 257.96C271.958 266.024 256.921 262.832 252.729 247.829Z" fill="#FFCACA"/>
<path d="M302.756 232.825C300.371 233.491 297.714 231.437 296.82 228.237C295.926 225.037 297.134 221.903 299.518 221.237C301.903 220.571 304.56 222.625 305.454 225.825C306.348 229.025 305.14 232.159 302.756 232.825Z" fill="black"/>
<path d="M277.608 239.855C275.223 240.521 272.566 238.467 271.672 235.267C270.778 232.067 271.986 228.933 274.37 228.267C276.755 227.601 279.412 229.655 280.306 232.855C281.2 236.055 279.992 239.189 277.608 239.855Z" fill="black"/>
<path d="M357.234 123.1C361.209 112.901 363.585 102.162 364.279 91.2589C364.32 90.0812 364 88.9202 363.362 87.9297C362.724 86.9393 361.796 86.166 360.703 85.7124C359.61 85.2587 358.403 85.1461 357.241 85.3894C356.079 85.6327 355.018 86.2204 354.197 87.0747C347.975 93.5503 342.722 98.1562 337.922 107.433C329.109 124.56 357.234 123.1 357.234 123.1Z" fill="#FFC145"/>
<path d="M359.841 141.437C357.769 139.956 356.019 138.075 354.696 135.906C353.373 133.738 352.503 131.325 352.139 128.812C351.775 126.299 351.923 123.736 352.575 121.277C353.227 118.818 354.369 116.512 355.934 114.496C367.959 99.0663 387.447 79.319 403.394 88.3824C422.651 99.3877 405.151 126.033 391.668 142.232C388.572 145.962 384.167 148.388 379.349 149.016C374.53 149.645 369.658 148.43 365.724 145.617L359.841 141.437Z" fill="#FFCACA"/>
<path d="M392.114 98.1117C385.06 100.082 375.254 108.646 365.204 121.562C364.598 122.341 364.156 123.233 363.905 124.184C363.654 125.135 363.598 126.126 363.742 127.098C363.885 128.069 364.225 129.001 364.74 129.838C365.256 130.674 365.936 131.398 366.741 131.965L372.568 136.162C373.477 136.813 374.525 137.25 375.632 137.437C376.738 137.625 377.875 137.559 378.954 137.244C380.41 136.847 381.707 136.01 382.665 134.849C396.899 117.747 401.016 106.458 400.13 101.545C399.935 100.845 399.815 99.7624 397.537 98.4677C396.733 98.0127 395.837 97.7425 394.913 97.6768C393.99 97.6111 393.062 97.7516 392.198 98.0881L392.114 98.1117ZM389.071 86.8918C391.44 86.1411 393.937 85.8854 396.407 86.1408C398.876 86.3962 401.263 87.1572 403.417 88.3757C422.675 99.381 405.175 126.026 391.692 142.225C388.592 145.949 384.187 148.371 379.371 148.999C374.554 149.628 369.684 148.417 365.747 145.611L359.921 141.415C357.848 139.934 356.099 138.053 354.776 135.884C353.453 133.715 352.583 131.302 352.219 128.789C351.854 126.276 352.003 123.714 352.655 121.255C353.307 118.795 354.449 116.489 356.014 114.473C364.557 103.457 376.909 90.2893 389.071 86.8918Z" fill="white"/>
<path d="M446.536 227.264C446.536 227.264 472.101 250.72 461.009 268.182C449.917 285.644 428.28 257.953 428.28 257.953L406.536 236.417L423.588 207.513C431.619 213.647 439.281 220.242 446.536 227.264Z" fill="white"/>
<path d="M355.852 197.325L361.749 195.678C368.7 193.736 375.894 197.745 377.818 204.632C379.742 211.519 375.667 218.676 368.717 220.618L362.819 222.265C355.869 224.207 348.675 220.198 346.751 213.311C344.827 206.424 348.902 199.267 355.852 197.325Z" fill="#FFD2D2"/>
<path d="M216.549 236.24L222.446 234.593C229.397 232.651 236.591 236.66 238.515 243.547C240.439 250.434 236.364 257.591 229.414 259.533L223.516 261.18C216.566 263.122 209.372 259.113 207.448 252.226C205.524 245.339 209.598 238.182 216.549 236.24Z" fill="#FFD2D2"/>
<path d="M498.369 198.24C498.369 198.24 466.206 208.398 468.646 228.071C471.086 247.745 501.43 232.575 501.43 232.575L520.398 225.411L526.491 190.355C516.972 192.44 507.582 195.073 498.369 198.24Z" fill="#EFEFEF"/>
<path d="M491.766 301.239L462.996 276.716L458.935 281.481C455.69 285.288 454.093 290.232 454.496 295.224C454.899 300.216 457.268 304.847 461.083 308.099C464.898 311.351 469.847 312.957 474.839 312.564C479.832 312.171 484.46 309.811 487.706 306.003L491.766 301.239Z" fill="#EFEFEF"/>
<path d="M712.977 210.039C695.588 183.898 671.23 163.136 642.665 150.108L642.471 149.943C629.969 144.197 616.176 141.854 602.49 143.149C588.803 144.444 575.71 149.333 564.534 157.32C543.233 172.51 485.203 230.793 469.454 249.271C469.454 249.271 434.449 285.461 523.211 361.117C611.973 436.773 641.817 396.185 641.817 396.185C641.817 396.185 664.554 369.51 673.703 357.338C690.348 335.631 705.078 312.521 717.728 288.265C723.879 275.969 726.671 262.261 725.823 248.527C724.975 234.793 720.516 221.519 712.898 210.045L712.977 210.039Z" fill="#F2F2F2"/>
<path d="M712.977 210.039C695.588 183.898 671.23 163.136 642.665 150.108L642.471 149.943C629.969 144.197 616.176 141.854 602.49 143.149C588.803 144.444 575.71 149.333 564.534 157.32C543.233 172.51 485.203 230.793 469.454 249.271C469.454 249.271 434.449 285.461 523.211 361.117C611.973 436.773 641.817 396.185 641.817 396.185C641.817 396.185 664.554 369.51 673.703 357.338C690.348 335.631 705.078 312.521 717.728 288.265C723.879 275.969 726.671 262.261 725.823 248.527C724.975 234.793 720.516 221.519 712.898 210.045L712.977 210.039Z" fill="white"/>
<path d="M650.719 278.986L660.374 287.216C665.67 291.73 666.312 299.675 661.806 304.961L661.788 304.982C657.282 310.269 649.336 310.894 644.039 306.38L634.385 298.151C629.088 293.636 628.447 285.691 632.953 280.405L632.971 280.384C637.477 275.098 645.423 274.472 650.719 278.986Z" fill="#FFD2D2"/>
<path d="M549.053 192.334L558.707 200.563C564.004 205.077 564.645 213.022 560.139 218.308L560.121 218.33C555.616 223.616 547.669 224.241 542.373 219.727L532.718 211.498C527.422 206.983 526.781 199.038 531.286 193.752L531.305 193.731C535.81 188.445 543.756 187.819 549.053 192.334Z" fill="#FFD2D2"/>
<path d="M569.806 202.614C564.533 198.119 563.895 190.21 568.38 184.948C572.866 179.685 580.776 179.063 586.049 183.557C591.322 188.051 591.96 195.96 587.474 201.223C582.989 206.485 575.079 207.108 569.806 202.614Z" fill="black"/>
<path d="M646.463 267.956C641.19 263.462 640.552 255.553 645.038 250.29C649.523 245.028 657.434 244.405 662.706 248.899C667.979 253.393 668.617 261.303 664.132 266.565C659.646 271.827 651.736 272.45 646.463 267.956Z" fill="black"/>
<path d="M694.054 198.878C692.904 197.215 692.439 195.174 692.756 193.181C693.072 191.187 694.146 189.393 695.753 188.173C708.452 178.545 738.199 158.845 751.357 173.765C766.895 191.381 732.923 212.815 718.353 220.849C716.66 221.724 714.71 221.973 712.848 221.552C710.987 221.131 709.332 220.067 708.176 218.547L694.054 198.878Z" fill="#FFD2D2"/>
<path d="M704.742 225.137C707.064 227.123 709.931 228.361 712.967 228.686C716.004 229.012 719.065 228.411 721.749 226.961C738.58 217.668 759.185 203.293 762.009 187.174C762.561 183.946 762.357 180.633 761.412 177.494C760.468 174.355 758.809 171.476 756.565 169.084C744.351 155.191 721.189 159.977 691.431 182.52C688.331 184.847 686.272 188.3 685.698 192.135C685.123 195.97 686.079 199.88 688.36 203.023L702.396 222.619C703.076 223.547 703.864 224.393 704.742 225.137ZM745.24 177.623C745.552 177.852 745.846 178.103 746.122 178.375C746.947 179.179 747.567 180.17 747.927 181.264C748.287 182.358 748.378 183.523 748.19 184.659C746.824 192.534 734.092 203.987 714.96 214.542C714.782 214.594 714.595 214.601 714.414 214.563C714.233 214.525 714.063 214.443 713.921 214.324L699.907 194.746C699.789 194.584 699.737 194.382 699.762 194.183C699.787 193.984 699.886 193.802 700.041 193.674C715.796 181.723 736.897 170.512 745.154 177.55L745.24 177.623Z" fill="white"/>
<path d="M652.401 165.569C654.223 166.455 656.316 166.599 658.239 165.969C660.161 165.339 661.762 163.986 662.701 162.195C670.197 148.132 684.938 115.679 668.119 105.011C648.285 92.4781 632.483 129.398 626.858 145.057C626.207 146.864 626.244 148.849 626.96 150.634C627.676 152.419 629.022 153.881 630.743 154.741L652.401 165.569Z" fill="#FFD2D2"/>
<path d="M624.665 159.107C625.593 159.899 626.616 160.571 627.71 161.109L649.261 171.845C652.725 173.608 656.741 173.939 660.441 172.767C664.142 171.596 667.23 169.015 669.039 165.583C686.563 132.612 687.58 108.988 671.966 99.1255C669.254 97.2876 666.151 96.1056 662.905 95.6731C659.659 95.2407 656.358 95.5696 653.264 96.6338C637.775 101.957 626.827 124.601 620.336 142.67C619.301 145.522 619.162 148.623 619.935 151.559C620.709 154.496 622.359 157.129 624.665 159.107ZM665.375 111.737C673.654 118.793 665.96 141.321 656.571 158.957C656.474 159.124 656.317 159.248 656.132 159.304C655.946 159.359 655.747 159.342 655.574 159.256L634.001 148.502C633.828 148.416 633.692 148.271 633.619 148.092C633.545 147.913 633.54 147.714 633.603 147.532C641.013 126.948 650.326 112.581 657.867 110.005C658.958 109.625 660.126 109.519 661.269 109.698C662.412 109.877 663.493 110.335 664.417 111.031C664.754 111.241 665.075 111.477 665.375 111.737Z" fill="white"/>
<path d="M561.749 261.844L589.229 285.267C608.087 301.341 610.374 329.624 594.337 348.439C578.299 367.255 550.011 369.477 531.153 353.404L503.673 329.981C484.814 313.907 482.528 285.624 498.565 266.808C514.602 247.993 542.891 245.77 561.749 261.844Z" fill="#F4F4F4"/>
<path d="M691.315 355.462C691.315 355.462 692.578 389.151 673.196 393.501C653.814 397.85 657.926 364.109 657.926 364.109L658.335 343.842L689.328 326.309C690.554 335.981 691.217 345.715 691.315 355.462Z" fill="white"/>
<path d="M515.284 324.991C515.566 325.234 515.892 325.419 516.245 325.535C516.598 325.652 516.971 325.698 517.341 325.67L535.141 324.169C535.843 324.058 536.477 323.687 536.917 323.129C537.356 322.571 537.569 321.868 537.512 321.159C537.454 320.451 537.132 319.789 536.609 319.307C536.085 318.825 535.399 318.558 534.688 318.559L516.958 319.934C516.587 319.962 516.225 320.063 515.893 320.231C515.56 320.4 515.265 320.633 515.024 320.916C514.782 321.199 514.599 321.528 514.486 321.882C514.372 322.237 514.33 322.61 514.361 322.982C514.372 323.361 514.459 323.735 514.618 324.08C514.776 324.425 515.003 324.735 515.284 324.991Z" fill="#FFD2D2"/>
<path d="M524.897 333.184C525.179 333.427 525.505 333.612 525.858 333.728C526.211 333.845 526.584 333.89 526.954 333.863C527.326 333.835 527.688 333.734 528.02 333.566C528.352 333.397 528.647 333.165 528.889 332.881C529.13 332.598 529.313 332.27 529.427 331.915C529.541 331.56 529.583 331.187 529.552 330.815L528.123 313.11C528.094 312.738 527.993 312.376 527.824 312.044C527.654 311.711 527.421 311.416 527.137 311.174C526.853 310.932 526.525 310.748 526.17 310.634C525.815 310.519 525.441 310.476 525.07 310.507C524.326 310.568 523.638 310.92 523.155 311.487C522.671 312.054 522.433 312.79 522.49 313.533L523.922 331.279C523.985 332.016 524.335 332.701 524.897 333.184Z" fill="#FFD2D2"/>
<path d="M601.949 234.937L617.537 238.775C617.899 238.862 618.275 238.878 618.642 238.82C619.01 238.762 619.362 238.632 619.679 238.438C620.32 238.046 620.778 237.415 620.953 236.685C621.127 235.954 621.004 235.183 620.611 234.542C620.217 233.901 619.586 233.442 618.855 233.266L605.97 230.176L600.317 216.947C600.02 216.257 599.461 215.712 598.762 215.433C598.064 215.153 597.284 215.163 596.593 215.459C595.903 215.755 595.359 216.313 595.081 217.011C594.803 217.708 594.814 218.488 595.111 219.179L601.949 234.937Z" fill="#FFD2D2"/>
<path d="M597.677 252.899C599.852 254.835 602.659 255.91 605.57 255.921C606.318 255.92 607.036 255.622 607.564 255.093C608.092 254.563 608.387 253.845 608.385 253.097C608.383 252.348 608.084 251.63 607.553 251.101C607.022 250.573 606.303 250.276 605.555 250.276C604.001 250.229 602.519 249.612 601.39 248.542C600.777 248.134 600.259 247.597 599.875 246.968C599.49 246.34 599.248 245.635 599.164 244.904C599.08 244.172 599.157 243.432 599.39 242.734C599.622 242.036 600.005 241.398 600.51 240.863L606.144 234.254C606.629 233.684 606.868 232.946 606.808 232.199C606.747 231.453 606.393 230.761 605.823 230.275C605.253 229.789 604.513 229.549 603.767 229.607C603.02 229.666 602.329 230.019 601.843 230.588L596.191 237.219C595.027 238.664 594.198 240.35 593.766 242.155C593.308 244.13 593.433 246.197 594.128 248.104C594.822 250.011 596.055 251.677 597.677 252.899Z" fill="#FFD2D2"/>
<path d="M584.402 241.572C585.491 242.601 586.774 243.402 588.175 243.931C589.576 244.46 591.067 244.705 592.563 244.652C594.059 244.6 595.528 244.251 596.887 243.625C598.245 242.999 599.465 242.11 600.475 241.008C600.96 240.439 601.199 239.7 601.139 238.954C601.078 238.207 600.724 237.515 600.154 237.029C599.584 236.543 598.844 236.303 598.098 236.362C597.351 236.42 596.66 236.773 596.175 237.342C595.666 237.926 595.039 238.394 594.334 238.716C593.63 239.037 592.865 239.205 592.09 239.207C591.315 239.209 590.548 239.046 589.84 238.729C589.133 238.411 588.501 237.947 587.987 237.366C586.737 236.441 585.884 235.077 585.597 233.55C585.547 233.182 585.426 232.827 585.239 232.506C585.053 232.184 584.805 231.903 584.509 231.677C584.214 231.451 583.877 231.285 583.518 231.189C583.159 231.094 582.785 231.069 582.417 231.118C582.049 231.167 581.694 231.287 581.373 231.473C581.051 231.659 580.77 231.907 580.545 232.201C580.319 232.496 580.154 232.832 580.059 233.191C579.964 233.55 579.94 233.924 579.99 234.292C580.486 237.188 582.063 239.79 584.402 241.572Z" fill="#FFD2D2"/>
<path d="M337.451 373.041C337.451 373.041 305.76 351.622 314.513 330.813C323.24 310.017 351.53 336.556 351.53 336.556L369.856 350.55L365.532 390.868C365.532 390.868 345.751 379.768 337.451 373.041Z" fill="#4B9B3A"/>
<path d="M597.683 346.641C597.683 346.641 635.912 481.465 465.601 471.422C320.857 462.862 359.864 346.61 359.864 346.61C348.429 335.63 341.274 320.111 341.274 302.899C341.274 279.788 354.147 259.702 373.067 249.598L373.126 249.507C372.169 245.908 371.57 242.217 371.57 238.315C371.57 214.75 390.46 195.632 413.811 195.632C430.875 195.632 445.544 205.856 452.19 220.558H454.375H494.58H495.987C502.663 205.856 517.302 195.632 534.336 195.632C557.657 195.632 576.577 214.75 576.577 238.315C576.577 240.886 576.278 243.427 575.829 245.877H575.919C599.389 253.984 616.244 276.46 616.244 302.899C616.244 320.111 609.119 335.63 597.683 346.641Z" fill="#49B236"/>
<path d="M413.341 270.687C421.145 270.687 427.471 264.295 427.471 256.409C427.471 248.524 421.145 242.131 413.341 242.131C405.537 242.131 399.21 248.524 399.21 256.409C399.21 264.295 405.537 270.687 413.341 270.687Z" fill="black"/>
<path d="M526.722 270.687C534.526 270.687 540.852 264.295 540.852 256.409C540.852 248.524 534.526 242.131 526.722 242.131C518.918 242.131 512.592 248.524 512.592 256.409C512.592 264.295 518.918 270.687 526.722 270.687Z" fill="black"/>
<path d="M378.887 318.495C392.659 318.495 403.824 307.796 403.824 294.597C403.824 281.399 392.659 270.7 378.887 270.7C365.114 270.7 353.949 281.399 353.949 294.597C353.949 307.796 365.114 318.495 378.887 318.495Z" fill="#9CD43D"/>
<path d="M554.233 318.495C568.006 318.495 579.171 307.796 579.171 294.597C579.171 281.399 568.006 270.7 554.233 270.7C540.461 270.7 529.296 281.399 529.296 294.597C529.296 307.796 540.461 318.495 554.233 318.495Z" fill="#9CD43D"/>
<circle cx="465.797" cy="285.909" r="15.5739" fill="white"/>
<path fill-rule="evenodd" clip-rule="evenodd" d="M514.028 18.3289C517.659 23.2428 519.83 28.8331 521.122 33.9523C523.215 31.7744 525.183 29.4717 527.015 27.0542C527.247 26.7277 527.567 26.4744 527.939 26.3245C528.311 26.1745 528.718 26.1341 529.113 26.2081C529.507 26.2821 529.872 26.4674 530.164 26.7419C530.456 27.0164 530.663 27.3687 530.76 27.7568C531.57 32.7479 531.725 37.8223 531.221 42.8522C531.065 45.2488 531.753 47.6251 533.164 49.5724C534.372 51.2376 536.044 52.5 537.962 53.2093C547.836 55.5157 557.536 58.6682 566.95 62.6533L566.913 62.7089C580.356 68.3984 592.055 77.5286 600.823 89.1743C609.591 100.82 615.117 114.567 616.842 129.023C617.317 133.666 617.728 138.314 618.074 142.965C619.788 143.078 621.496 143.246 623.196 143.471C623.277 143.201 623.366 142.933 623.463 142.667C629.954 124.598 640.902 101.954 656.391 96.6302C659.485 95.566 662.786 95.2371 666.032 95.6696C669.278 96.102 672.381 97.284 675.094 99.1219C690.656 108.952 689.696 132.456 672.336 165.261C679.984 170.604 687.173 176.571 693.829 183.101C694.065 182.899 694.308 182.704 694.558 182.517C724.316 159.973 747.478 155.187 759.692 169.081C761.935 171.473 763.595 174.352 764.539 177.49C765.484 180.629 765.688 183.943 765.136 187.171C762.312 203.289 741.707 217.665 724.876 226.958C724.775 227.012 724.673 227.066 724.571 227.118C727.014 233.986 728.497 241.189 728.95 248.523C729.798 262.258 727.006 275.965 720.855 288.262C712.564 304.159 703.38 319.564 693.349 334.404C694.007 341.403 694.371 348.427 694.441 355.458C694.441 355.458 695.705 389.148 676.323 393.497C665.27 395.977 661.858 386.071 660.966 377.098C652.694 387.089 644.944 396.182 644.944 396.182C644.944 396.182 637.87 405.802 620.366 406.945C619.982 413.583 617.776 419.881 612.17 424.156C604.176 430.251 597.496 426.253 592.548 419.949C588.87 427.791 583.783 435.404 576.836 442.277V450.906C576.836 462.22 567.765 471.386 556.569 471.386C550.175 471.386 544.474 468.397 540.76 463.726C528.891 467.752 514.78 470.499 498.029 471.516C488.096 472.13 477.232 472.135 465.353 471.434C447.048 470.352 431.682 467.547 418.803 463.472C414.829 468.307 408.833 471.384 402.123 471.384C390.149 471.384 380.449 461.583 380.449 449.483V442.162H380.492C361.852 425.003 356.051 403.248 355.196 384.832C349.09 381.156 341.739 376.514 337.451 373.038C337.451 373.038 333.434 370.323 328.655 365.887C323.459 367.029 318.23 368.013 312.976 368.836C311.616 369.067 310.254 369.288 308.891 369.501C300.695 370.785 292.427 371.543 284.138 371.771C283.743 371.783 283.347 371.793 282.951 371.803C282.852 371.805 282.753 371.806 282.654 371.808C282.402 372.367 282.123 372.917 281.817 373.455C279.239 377.989 274.957 381.328 269.913 382.737C264.869 384.146 259.476 383.51 254.921 380.969C250.366 378.427 247.022 374.188 245.624 369.185L244.716 365.933C239.459 363.809 235.321 361.298 232.071 358.728C230.289 357.318 228.774 355.89 227.488 354.499C221.739 348.278 220.571 342.777 220.581 342.813C218.8 336.437 216.343 325.922 213.682 313.404C208.357 310.747 203.125 307.909 197.994 304.895C197.994 304.895 167.518 288.04 174.132 268.639C179.307 253.458 197.318 263.353 204.909 268.375C203.168 258.589 201.569 248.948 200.26 240.131C199.358 234.762 198.606 229.371 198.004 223.962C197.428 218.786 196.989 213.594 196.69 208.392C196.637 206.384 196.661 204.379 196.76 202.38C176.81 196.936 152.371 186.269 160.517 167.644C160.711 167.219 160.921 166.802 161.145 166.394C162.714 163.359 165.001 161.075 167.802 159.405C168.97 158.685 170.214 158.094 171.511 157.642C182.57 153.517 198.808 156.055 211.803 159.423C211.848 159.361 211.893 159.298 211.938 159.236C204.855 153.449 198.749 146.574 193.851 138.871C193.206 137.885 192.877 136.727 192.91 135.549C192.943 134.371 193.335 133.229 194.034 132.274C194.734 131.32 195.708 130.598 196.828 130.204C197.948 129.81 199.16 129.762 200.305 130.067C210.476 132.588 220.251 136.468 229.361 141.601C231.361 140.117 233.433 138.722 235.572 137.421L235.854 137.342C245.812 131.279 256.353 126.222 267.318 122.245C286.846 115.145 307.481 111.567 328.248 111.681C330.948 111.694 333.637 111.84 336.307 112.118C336.506 110.736 337.021 109.181 337.921 107.432C342.017 99.5156 346.443 95.0006 351.52 89.8225L351.52 89.8221C352.392 88.9324 353.284 88.0231 354.196 87.0737C355.017 86.2193 356.078 85.6316 357.24 85.3883C358.402 85.1451 359.609 85.2577 360.702 85.7113C361.795 86.165 362.723 86.9382 363.361 87.9287C364 88.9192 364.319 90.0801 364.278 91.2579C363.939 96.5866 363.198 101.876 362.065 107.083C367.381 101.056 373.515 95.1507 379.875 91.1467C382.909 89.232 385.996 87.7489 389.07 86.8901C391.439 86.1394 393.937 85.8838 396.406 86.1392C398.875 86.3946 401.262 87.1555 403.416 88.3741C405.886 89.7856 407.752 91.4544 409.098 93.3255C414.324 83.5657 421.481 74.9221 430.175 67.9368C441.525 58.8172 455.09 52.8473 469.5 50.6304L469.797 50.6671C476.199 49.6672 482.63 49.0197 489.063 48.721L487.418 48.6419C489.713 48.5795 491.967 48.0298 494.032 47.0293C496.096 46.0288 497.922 44.6006 499.388 42.84C504.343 35.5866 508.037 27.5523 510.315 19.0739C510.411 18.6902 510.614 18.3416 510.9 18.0684C511.187 17.7952 511.545 17.6088 511.934 17.5308C512.323 17.4528 512.726 17.4864 513.097 17.6277C513.467 17.7689 513.79 18.0121 514.028 18.3289ZM394.457 138.817C393.998 140.69 393.539 142.596 393.079 144.528C392.563 143.827 392.036 143.135 391.498 142.452C391.563 142.376 391.627 142.3 391.691 142.223C392.599 141.133 393.525 139.994 394.457 138.817Z" fill="url(#paint0_linear_508_1444)"/>
<path d="M4.17087 157.428L325.666 0L422.308 229.527L218.084 304.231L4.17087 157.428Z" fill="url(#paint1_linear_508_1444)"/>
<path d="M4.3269 156.517H212.562C214.952 156.517 216.889 158.331 216.889 160.568V304.092C216.889 306.33 214.952 308.143 212.562 308.143H4.3269C1.93718 308.143 -7.62939e-05 306.33 -7.62939e-05 304.092V160.568C-7.62939e-05 158.331 1.93718 156.517 4.3269 156.517Z" fill="#136E90"/>
<path d="M6.4198 308.144H251.136C253.53 308.144 255.47 309.957 255.47 312.193V318.767C255.47 321.004 253.53 322.817 251.136 322.817H6.4198C4.02602 322.817 2.08548 321.004 2.08548 318.767V312.193C2.08548 309.957 4.02602 308.144 6.4198 308.144Z" fill="#015271"/>
<g filter="url(#filter0_d_508_1444)">
<path d="M95.3801 233.585V226.712L80.2906 241.111L83.8454 244.587L95.3801 233.585ZM129.702 229.337C128.835 225.693 126.841 222.286 123.904 219.433L113.559 209.342L107.638 214.997L107.209 215.403V222.276L113.522 216.245L119.406 221.979L120.3 222.86L120.362 222.919C120.362 222.919 120.754 223.286 121.293 223.91C122.987 225.802 124.158 227.967 124.726 230.257C125.559 234.308 125.951 239.032 121.269 244.785V251.886C121.71 251.519 121.992 251.262 122.09 251.163C125.987 247.733 128.678 243.524 129.886 238.972C130.55 235.778 130.488 232.513 129.702 229.337ZM98.322 250.509L98.1626 250.44H98.0768C97.6205 250.198 97.1862 249.93 96.7775 249.638C96.3975 249.37 95.9194 249.024 95.3556 248.578C94.4975 247.895 93.4433 246.984 92.144 245.766L89.2266 242.933L85.6351 246.37L88.5279 249.202C93.0021 253.391 95.3066 254.589 96.1524 254.926C98.7754 256.178 101.702 256.959 104.733 257.214C106.109 257.318 107.495 257.291 108.864 257.134H109.195V252.183C105.439 252.749 101.557 252.151 98.322 250.509Z" fill="white"/>
<path d="M104.673 217.849L104.624 247.201L97.8949 247.192L97.9316 224.286L98.6059 223.632L98.9736 223.286L101.008 221.345L102.394 220.028L102.835 219.602L104.22 218.285L104.673 217.849Z" fill="white"/>
<path d="M118.757 224.433V253.716L118.659 253.776L117.678 254.35L117.323 254.538C117.017 254.707 116.686 254.865 116.342 255.024C115.999 255.182 115.705 255.321 115.374 255.459L114.81 255.687L114.062 255.974L113.437 256.182C113.02 256.311 112.591 256.44 112.138 256.559L111.807 256.638V224.423L118.757 224.433Z" fill="white"/>
<path d="M104.683 232.2L104.673 238.844L111.82 238.851L111.83 232.207L104.683 232.2Z" fill="white"/>
</g>
</g>
<defs>
<filter id="filter0_d_508_1444" x="78.7159" y="207.768" width="53.2007" height="51.0829" filterUnits="userSpaceOnUse" color-interpolation-filters="sRGB">
<feFlood flood-opacity="0" result="BackgroundImageFix"/>
<feColorMatrix in="SourceAlpha" type="matrix" values="0 0 0 0 0 0 0 0 0 0 0 0 0 0 0 0 0 0 127 0" result="hardAlpha"/>
<feOffset/>
<feGaussianBlur stdDeviation="0.787339"/>
<feComposite in2="hardAlpha" operator="out"/>
<feColorMatrix type="matrix" values="0 0 0 0 1 0 0 0 0 1 0 0 0 0 1 0 0 0 0.4 0"/>
<feBlend mode="normal" in2="BackgroundImageFix" result="effect1_dropShadow_508_1444"/>
<feBlend mode="normal" in="SourceGraphic" in2="effect1_dropShadow_508_1444" result="shape"/>
</filter>
<linearGradient id="paint0_linear_508_1444" x1="592.796" y1="72.0447" x2="422.567" y2="437.042" gradientUnits="userSpaceOnUse">
<stop offset="0.25" stop-color="#96FFFF" stop-opacity="0"/>
<stop offset="1" stop-color="#96FFFF" stop-opacity="0.5"/>
</linearGradient>
<linearGradient id="paint1_linear_508_1444" x1="283.981" y1="108.553" x2="167.089" y2="271.66" gradientUnits="userSpaceOnUse">
<stop offset="0.25" stop-color="#96FFFF" stop-opacity="0"/>
<stop offset="1" stop-color="#96FFFF" stop-opacity="0.5"/>
</linearGradient>
<clipPath id="clip0_508_1444">
<rect width="824" height="323" fill="white"/>
</clipPath>
</defs>
</svg>